# xmcd
#
# Track frame offsets:
#	150
#	16364
#	28695
#	42363
#	57588
#	70175
#	81493
#	93699
#	108596
#	124536
#	137702
#	150967
#	165257
#	179695
#
# Disc length: 2572 seconds
#
# Revision: 0
# Processed by: cddbd v1.4PL0 Copyright (c) Steve Scherf et al.
# Submitted via: audiograbber 1.82.01
#
DISCID=bb0a0a0e
DTITLE=Ríó - Utan Af Landi
DYEAR=2003
DGENRE=Pop
TTITLE0=Alltaf Einn
TTITLE1=Þorpin (Icelandic Dummy Show
TTITLE2=Af Stað
TTITLE3=Víkurnar
TTITLE4=Ef Ég Mætti...
TTITLE5=Brúðkaupsdagur
TTITLE6=Heim Til Kullaberg
TTITLE7=Meira, Meira
TTITLE8=Ekki Hér
TTITLE9=Lilla Símamær
TTITLE10=Ég Fell Í Stafi
TTITLE11=Nema Jóhannes
TTITLE12=Skinhelgi
TTITLE13=Þjóðsaga
EXTD=
EXTT0=
EXTT1=
EXTT2=
EXTT3=
EXTT4=
EXTT5=
EXTT6=
EXTT7=
EXTT8=
EXTT9=
EXTT10=
EXTT11=
EXTT12=
EXTT13=
PLAYORDER=
